<?xml version='1.0' encoding='ASCII' standalone='yes'?>
<svg xmlns="http://www.w3.org/2000/svg" xmlns:xlink="http://www.w3.org/1999/xlink" version="1.1" width="1920.0px" viewBox="0 0 1920.0 1080.0" height="1080.0px">
  <g>
    <g>
      <defs/>
      <rect fill="#1E498C" height="1080px" width="1920px" x="0" y="0"/>
    </g>
    <g transform="translate(846.75, 475.5) scale(1 1)"><g>
    <g transform="translate(0, 0) scale(1.5 1.5)"><title>fight-sports/logo/fight-sports_secundario</title>
    <g id="fight-sports/logo/fight-sports_secundario" stroke="none" stroke-width="1" fill="none" fill-rule="evenodd">
        <g id="Group" transform="translate(0.999461, 0.000000)" fill="#FFFFFF">
            <path d="M147.62854,15.8840128 C146.631124,15.8840128 145.666027,15.8840128 144.700931,15.8840128 C96.9111435,15.8842371 49.1215808,15.8799754 1.33179373,15.9125 C0.225748158,15.9131717 -0.00969051933,15.6240494 0.00512259097,14.5646817 C0.067068325,10.119061 0.0654972375,5.6714215 0.000538503748,1.22602504 C-0.0132815764,0.222283728 0.253129968,-0.0008945091 1.23057081,0 C26.9950584,0.0289373557 52.7597705,0.0248999605 78.5242581,0.0255728597 C95.5759436,0.0257971594 112.627854,0.0305074539 129.679539,0.00740458112 C130.595034,0.0060587827 131.280702,0.222956627 131.965022,0.870509964 C137.066119,5.69699167 142.207166,10.481305 147.334298,15.2799736 C147.463351,15.4008711 147.654126,15.4829648 147.62854,15.8840128" id="Fill-4"/>
            <path d="M1.32211095,67.2125 C35.0421635,67.2454978 68.7622161,67.2380909 102.482493,67.237642 L147.532604,67.2383153 C147.565359,67.3218116 147.598115,67.4055324 147.63087,67.4890287 C145.186992,69.7854019 142.746254,72.0853663 140.298337,74.3774749 C136.53414,77.9018275 132.752667,81.407775 129.012476,84.9572663 C128.504765,85.4393902 127.98449,85.4710379 127.382775,85.4708135 C110.298508,85.4687934 93.2140161,85.4703646 76.1297489,85.4708135 C51.2321592,85.4714869 26.3345695,85.4627332 1.43720411,85.5 C0.257330944,85.5017879 -0.0139120025,85.1893501 0.000538503748,84.0383579 C0.0679768936,78.8786446 0.0623680651,73.7173602 0.00246577671,68.5574224 C-0.00964929285,67.4984557 0.220537029,67.211381 1.32211095,67.2125 Z M29.24254,70.5375 C27.3326316,70.5375 25.8691954,70.728643 24.8522312,71.1109291 C24.1329151,71.3817151 23.587227,71.732144 23.215167,72.1701801 C22.9919309,72.4250375 22.8183029,72.711752 22.6942829,73.038288 C22.5702629,73.3727884 22.5123868,73.715253 22.5123868,74.0656819 C22.5123868,74.7904325 22.7438909,75.4116474 23.206899,75.9213622 C23.612031,76.3434697 24.1494511,76.6620414 24.8191592,76.8770773 C25.5632793,77.139899 26.9440356,77.3708635 28.9531599,77.5699708 L28.9531599,77.5699708 L29.1433239,77.5858994 L29.4754671,77.6202454 C31.0993845,77.7919755 32.1714794,77.9637056 32.6985645,78.1354357 C32.9962126,78.2389715 33.2111806,78.3584359 33.3517366,78.4938288 C33.4344166,78.5973647 33.4757566,78.7247933 33.4757566,78.8681506 C33.4674886,79.0513294 33.4178806,79.2026509 33.3186646,79.3221153 C33.1781086,79.4893655 32.9383366,79.6327228 32.5993485,79.7521872 C31.8138884,80.0309374 30.6315642,80.1742947 29.0523759,80.1742947 C28.0188757,80.1742947 27.0680556,80.0548303 26.1999155,79.8159015 C25.4640633,79.5929013 24.9431792,79.3380439 24.6372632,79.0433651 C24.5876552,79.0035436 24.5545832,78.9637221 24.5297792,78.9239007 L24.5297792,78.9239007 L22.5702629,80.1026161 L22.6462251,80.2222049 C22.7299386,80.3420426 22.8369059,80.4630003 22.9671269,80.5884379 C23.554155,81.1777956 24.4140272,81.6317603 25.5467433,81.9423678 C26.6215835,82.2529752 27.7956397,82.4122611 29.0689119,82.4122611 C30.9457482,82.4202254 32.4091845,82.2290823 33.4592206,81.838832 C34.1537328,81.5919389 34.6994208,81.24151 35.0962849,80.7875453 C35.336057,80.5008307 35.509685,80.2141162 35.617169,79.9194373 C35.724653,79.6088299 35.782529,79.2663653 35.782529,78.8920435 C35.782529,78.1752571 35.551025,77.5620065 35.0880169,77.0522918 C34.6994208,76.6301843 34.1620008,76.3036482 33.4840246,76.0726837 L33.4840246,76.0726837 L33.4674886,76.0487909 L33.3309379,76.0053885 C32.5669631,75.7748081 31.2317238,75.5587526 29.32522,75.3638616 L29.32522,75.3638616 L29.1598599,75.3479331 L28.8440149,75.3156074 C27.1947363,75.1432039 26.1089674,74.9708004 25.5798153,74.7983968 C25.2408273,74.6630038 25.0258593,74.5435394 24.9349112,74.4400036 C24.8522312,74.3842536 24.8108912,74.2568249 24.8108912,74.0577176 C24.8191592,73.8745388 24.8687672,73.7232173 24.9679832,73.6037529 C25.0920033,73.4524313 25.3317753,73.309074 25.6790314,73.173681 C26.4562235,72.8949308 27.6385477,72.7515735 29.2342719,72.7515735 C30.2843081,72.7515735 31.2351283,72.8790022 32.0867324,73.1258953 C32.8391205,73.3329669 33.3600046,73.5878243 33.6493847,73.8904674 L33.6493847,73.8904674 L33.7403327,74.0099318 L35.716385,72.8312164 L35.6251063,72.7088849 C35.5073699,72.5546962 35.4055082,72.4361875 35.3195209,72.3533588 C34.7242249,71.7640011 33.8643527,71.3100364 32.7481725,70.999429 C31.7229404,70.6888216 30.5571522,70.5375 29.24254,70.5375 Z M60.6681982,70.5375863 C58.666639,70.5296728 56.9640678,71.0657925 55.5604848,72.1380318 C54.8628459,72.6901551 54.3230063,73.3222962 53.9326607,74.0344552 C53.5257047,74.7946249 53.318074,75.6108071 53.318074,76.4830018 C53.318074,78.235393 54.0655443,79.6757145 55.56879,80.8119682 L55.56879,80.8119682 L55.8140672,80.99562 C57.1406042,81.9453979 58.7614163,82.4198617 60.6765035,82.4124137 C62.6780627,82.4203272 64.3806338,81.8842075 65.7842169,80.8119682 C66.490161,80.2598449 67.0300006,79.6277038 67.4037357,78.907543 C67.8106918,78.1553751 68.0100172,77.3471947 68.0100172,76.4830018 C68.0100172,74.714607 67.2625469,73.2582819 65.7676064,72.1220283 C64.3889391,71.0657925 62.6863679,70.5375863 60.6681982,70.5375863 Z M109.10036,70.5375 C107.190452,70.5375 105.727015,70.728643 104.710051,71.1109291 C103.990735,71.3817151 103.445047,71.732144 103.072987,72.1701801 C102.849751,72.4250375 102.676123,72.711752 102.552103,73.038288 C102.428083,73.3727884 102.370207,73.715253 102.370207,74.0656819 C102.370207,74.7904325 102.601711,75.4116474 103.064719,75.9213622 C103.469851,76.3434697 104.007271,76.6620414 104.676979,76.8770773 C105.421099,77.139899 106.801855,77.3708635 108.81098,77.5699708 L108.81098,77.5699708 L109.001144,77.5858994 L109.333287,77.6202454 C110.957204,77.7919755 112.029299,77.9637056 112.556384,78.1354357 C112.854032,78.2389715 113.069001,78.3584359 113.209557,78.4938288 C113.292237,78.5973647 113.333577,78.7247933 113.333577,78.8681506 C113.325309,79.0513294 113.275701,79.2026509 113.176485,79.3221153 C113.035929,79.4893655 112.796156,79.6327228 112.457168,79.7521872 C111.671708,80.0309374 110.489384,80.1742947 108.910196,80.1742947 C107.876696,80.1742947 106.925875,80.0548303 106.057735,79.8159015 C105.321883,79.5929013 104.800999,79.3380439 104.495083,79.0433651 C104.445475,79.0035436 104.412403,78.9637221 104.387599,78.9239007 L104.387599,78.9239007 L102.428083,80.1026161 L102.504045,80.2222049 C102.587759,80.3420426 102.694726,80.4630003 102.824947,80.5884379 C103.411975,81.1777956 104.271847,81.6317603 105.404563,81.9423678 C106.479403,82.2529752 107.65346,82.4122611 108.926732,82.4122611 C110.803568,82.4202254 112.267004,82.2290823 113.317041,81.838832 C114.011553,81.5919389 114.557241,81.24151 114.954105,80.7875453 C115.193877,80.5008307 115.367505,80.2141162 115.474989,79.9194373 C115.582473,79.6088299 115.640349,79.2663653 115.640349,78.8920435 C115.640349,78.1752571 115.408845,77.5620065 114.945837,77.0522918 C114.557241,76.6301843 114.019821,76.3036482 113.341845,76.0726837 L113.341845,76.0726837 L113.325309,76.0487909 L113.188758,76.0053885 C112.424783,75.7748081 111.089544,75.5587526 109.18304,75.3638616 L109.18304,75.3638616 L109.01768,75.3479331 L108.701835,75.3156074 C107.052556,75.1432039 105.966787,74.9708004 105.437635,74.7983968 C105.098647,74.6630038 104.883679,74.5435394 104.792731,74.4400036 C104.710051,74.3842536 104.668711,74.2568249 104.668711,74.0577176 C104.676979,73.8745388 104.726587,73.7232173 104.825803,73.6037529 C104.949823,73.4524313 105.189595,73.309074 105.536851,73.173681 C106.314043,72.8949308 107.496368,72.7515735 109.092092,72.7515735 C110.142128,72.7515735 111.092948,72.8790022 111.944552,73.1258953 C112.69694,73.3329669 113.217825,73.5878243 113.507205,73.8904674 L113.507205,73.8904674 L113.598153,74.0099318 L115.574205,72.8312164 L115.482926,72.7088849 C115.36519,72.5546962 115.263328,72.4361875 115.177341,72.3533588 C114.582045,71.7640011 113.722173,71.3100364 112.605992,70.999429 C111.58076,70.6888216 110.414972,70.5375 109.10036,70.5375 Z M47.7760068,70.775 L38.3891641,70.775 L38.3891641,82.175 L40.7461404,82.175 L40.7461404,77.842364 L47.7760068,77.842364 L48.0175901,77.834451 C48.4190881,77.8081358 48.8148831,77.7164923 49.204975,77.5641213 C49.6238105,77.3812762 50.0015837,77.1268828 50.3465071,76.8009414 C50.6914304,76.4670502 50.9542292,76.09341 51.1349033,75.6800209 C51.3237899,75.2268828 51.4223395,74.7737448 51.4223395,74.3206067 C51.4223395,73.851569 51.3237899,73.3904812 51.1349033,72.9373431 C50.9460167,72.5080544 50.683218,72.1344142 50.3465071,71.8084728 C50.0262211,71.498431 49.6484479,71.2519874 49.2131875,71.0691423 L49.2131875,71.0691423 L49.204975,71.0532427 L48.9873448,70.9691442 C48.6177841,70.8412483 48.2140047,70.775 47.7760068,70.775 L47.7760068,70.775 Z M79.9668883,70.775 L70.3796854,70.775 L70.3796854,82.175 L72.7496486,82.175 L72.7496486,77.9019819 L77.8859451,77.8861266 L80.6109898,82.175 L83.4186117,82.175 L80.6440207,77.8227051 L80.7777295,77.8065961 C80.962438,77.7764075 81.1725142,77.7117177 81.4037301,77.6165855 C81.8331311,77.434249 82.2212435,77.1805633 82.5598097,76.8476008 L82.5598097,76.8476008 L82.7229377,76.680459 C82.9846231,76.3941817 83.1956535,76.0693672 83.3608077,75.7060153 C83.5507351,75.2541377 83.6498276,74.7943324 83.6498276,74.3265994 C83.6498276,73.8588665 83.5507351,73.3990612 83.3608077,72.9471836 C83.1791381,72.5349444 82.9148913,72.1623435 82.5680674,71.8293811 C82.2212435,71.4964186 81.8331311,71.242733 81.4037301,71.0683241 C80.949556,70.8701321 80.4706087,70.775 79.9668883,70.775 L79.9668883,70.775 Z M99.7635717,70.775 L85.782529,70.775 L85.782529,73.0502434 L91.5859807,73.0502434 L91.5859807,82.175 L93.9518765,82.175 L93.9518765,73.0502434 L99.7635717,73.0502434 L99.7635717,70.775 Z M60.659893,72.7621712 C62.1216126,72.7621712 63.3424807,73.1302533 64.3308025,73.8744195 C64.7626742,74.2264981 65.0948832,74.6185856 65.3357347,75.0426803 C65.5765862,75.4827785 65.6928594,75.9628857 65.6928594,76.4830018 C65.6928594,76.9871143 65.5765862,77.4592197 65.3357347,77.899318 C65.0948832,78.3554198 64.754369,78.7475073 64.314192,79.0755805 C63.3424807,79.8277484 62.1216126,80.2038324 60.659893,80.2038324 C59.1815629,80.2038324 57.9606949,79.8357502 56.9972887,79.0915841 C56.5571118,78.7395055 56.2249028,78.347418 56.0006617,77.9233233 C55.7598102,77.4752233 55.6435371,77.0031179 55.6435371,76.4990054 C55.6435371,75.9948928 55.7598102,75.5227874 56.0006617,75.0746874 L56.0006617,75.0746874 L56.0006617,75.0586838 L56.1033753,74.8705369 C56.3220231,74.5019881 56.6199942,74.1796305 56.9972887,73.8984248 C58.002221,73.1382551 59.2230891,72.7621712 60.659893,72.7621712 Z M47.7760068,72.8975941 C48.1948423,72.8975941 48.5397657,73.0406904 48.8107769,73.3189331 C49.098213,73.5812762 49.2460373,73.9151674 49.2460373,74.3285565 C49.2460373,74.7180962 49.098213,75.0519874 48.8025644,75.3381799 L48.8025644,75.3381799 L48.672865,75.4491293 C48.4075283,75.6543869 48.1068517,75.7595188 47.7760068,75.7595188 L47.7760068,75.7595188 L40.7461404,75.7595188 L40.7461404,72.8975941 Z M79.9668883,72.9392559 C80.3632585,72.9392559 80.7018246,73.0740264 80.9825868,73.3435675 C81.263349,73.6368915 81.4037301,73.969854 81.4037301,74.3424548 C81.4037301,74.730911 81.263349,75.0638734 80.9825868,75.3334145 C80.7018246,75.6029555 80.3632585,75.737726 79.9668883,75.7297983 L79.9668883,75.7297983 L72.7496486,75.7456537 L72.7496486,72.9392559 Z" id="Combined-Shape"/>
            <path d="M70.8458731,23.6774284 C74.1917827,23.9997249 77.1548215,25.328188 78.7179676,28.6326249 C79.6108089,30.5199447 79.4989792,32.5610062 79.4529449,34.5780526 C79.4401451,35.1348894 78.9901315,35.2257877 78.5729033,35.2280322 C75.9541115,35.2423963 73.3350951,35.2435185 70.7163033,35.2266855 C70.261574,35.2235433 69.8980151,35.1135675 69.7807959,34.501294 C69.4744993,32.9026046 68.2252848,31.7584071 66.5871364,31.7276588 L65.9156416,31.7126629 L65.9156416,31.7126629 L64.5717156,31.6768152 C62.7792708,31.6316613 60.9854223,31.6180094 59.1994129,31.8870115 C57.7317038,32.1080854 56.8981457,32.8821805 56.7739653,34.3713429 C56.5043463,37.603884 56.5214626,40.8412132 56.5719465,44.0784758 L56.612107,46.5063345 C56.62494,47.315566 56.6358997,48.1247175 56.6410271,48.9337131 C56.6520304,50.6459694 57.7267636,51.5809883 59.604515,51.6404651 C62.1456098,51.7208147 64.6945642,51.7230591 67.2343117,51.6177966 C69.2890146,51.5327336 70.6922756,48.9931899 69.7866344,47.2140504 C69.5838588,46.815893 69.2207491,46.913749 68.9050209,46.9115046 C67.3337908,46.8998337 65.7618869,46.8821029 64.1913304,46.9171156 C63.4606197,46.9332753 63.0835873,46.7555185 63.0995309,45.9248644 C63.1372566,43.9814344 63.1235586,42.036209 63.0858329,40.0927791 C63.0714612,39.3510034 63.3707966,39.1187075 64.0833182,39.1211763 C68.9467887,39.1380094 73.8107083,39.1375605 78.6741788,39.1135454 C79.3323574,39.1101787 79.5075124,39.3597565 79.5024577,39.9709079 C79.4679903,44.083106 79.5389505,48.1979973 79.4172402,52.3072777 C79.2984492,56.3191508 77.1420217,58.5952015 72.8767729,59.4736615 C71.3405737,59.7901225 69.7911256,59.9773059 68.2109131,59.9930167 C64.3271878,60.0318449 60.443238,60.2127439 56.5617582,59.9387021 C54.3866924,59.7851848 52.2554154,59.3715411 50.313665,58.3523569 C47.8866455,57.0786573 47.2455332,54.7572697 46.9318261,52.2662051 C46.5094331,48.9128402 46.859294,45.5473555 46.6973879,42.1903996 C46.8565993,38.9449906 46.6093613,35.6993571 46.9046547,32.4481126 C47.4191163,26.77942 50.4196562,24.2695024 55.8499104,23.6570044 C60.8323964,23.094781 65.8620396,23.1973503 70.8458731,23.6774284 Z M148.83723,23.403312 C149.799909,23.3923891 150.02267,23.6951592 149.998867,24.6086319 C149.935766,27.035731 149.952383,29.4659723 149.992355,31.8941936 C150.004705,32.6328271 149.769144,32.8613075 149.03529,32.8478411 C146.792632,32.8069929 144.545034,32.9088889 142.306868,32.7995864 C141.097175,32.7405586 140.907873,33.1822574 140.913936,34.2636115 C140.958174,42.3717475 140.924041,50.4803323 140.961093,58.5884683 C140.965585,59.5874528 140.739006,59.976857 139.661129,59.9465575 C137.045705,59.8733899 134.426015,59.8841631 131.810143,59.9461086 C130.865878,59.9685527 130.615721,59.6722913 130.619538,58.7471477 C130.653222,50.5640486 130.621784,42.3807251 130.662878,34.1978505 C130.668267,33.1239029 130.3723,32.7683892 129.277357,32.8056463 C126.924441,32.885996 124.566585,32.8135017 122.211649,32.8512077 C121.475773,32.8628786 121.237068,32.6110564 121.247174,31.8800538 C121.281306,29.414351 121.287369,26.9473015 121.241335,24.4820475 C121.225167,23.6204206 121.562453,23.4074266 122.365022,23.4125887 C126.814408,23.4413171 131.264019,23.4262796 135.713405,23.4262796 C140.088238,23.4262796 144.463071,23.4552324 148.83723,23.403312 Z M41.097211,24.6224574 C41.0626291,30.3032699 41.07992,35.9845312 41.0790218,41.665568 L41.0731833,50.2432895 C41.0731272,53.1024926 41.0783481,55.9616396 41.0990074,58.8206744 C41.1057442,59.7296583 40.823026,59.9608319 39.9533141,59.9446722 C37.2613165,59.8948464 34.5677469,59.9035996 31.8753002,59.939959 C31.0668925,59.9507321 30.765087,59.7220273 30.7668755,58.8626448 C30.7920339,47.3885753 30.7906866,35.9140569 30.7698027,24.4399873 C30.7684553,23.6461414 31.0296159,23.4046435 31.8054628,23.4145189 C34.4976849,23.4493072 37.191479,23.4596314 39.8832521,23.4066635 C40.8180858,23.3882594 41.1030495,23.6957428 41.097211,24.6224574 Z M1.31293085,23.3998048 C9.09363035,23.4449979 16.8745544,23.4407335 24.6552539,23.4030275 C25.6008663,23.3985387 25.8728057,23.6732539 25.8490026,24.5983974 C25.7890457,26.9148474 25.7890457,29.2344395 25.842715,31.5508895 C25.8629252,32.4129653 25.564488,32.6165328 24.7477717,32.610024 C20.4086434,32.5747868 16.069066,32.6183283 11.7301622,32.5756846 C10.8231737,32.566707 10.4486115,32.7792521 10.5155297,33.7465905 C10.5952476,34.89999 10.5795286,36.0652848 10.5197963,37.2211532 C10.4782531,38.0248745 10.7739956,38.2291153 11.548495,38.2221576 C15.5135102,38.1871449 19.4791991,38.2362974 23.4437652,38.1849005 C24.4017283,38.1723319 24.7625925,38.3803882 24.7244177,39.4116921 C24.644026,41.5768692 24.6718712,43.7478817 24.7170073,45.9150788 C24.7334,46.7021914 24.4857128,46.9347118 23.6927996,46.9273052 C19.7655101,46.8913947 15.8364242,46.9699489 11.910482,46.8860082 C10.7066283,46.8601975 10.4899301,47.2700258 10.5085684,48.3486866 C10.5687498,51.8243716 10.507221,55.301852 10.5474169,58.7779858 C10.557522,59.6524058 10.2954631,59.9580938 9.3985797,59.9421585 C6.66863183,59.8936793 3.93643838,59.8903127 1.20671507,59.9441784 C0.259530717,59.962807 -0.00387545677,59.6313084 0.00151392786,58.7180602 C0.034299351,53.0359012 0.0179066394,47.3535177 0.0194785433,41.6713586 C0.0210504471,36.0264566 0.0426079856,30.3813302 0.000686268795,24.7368772 C-0.00657014908,23.7284662 0.250997525,23.3938255 1.31293085,23.3998048 Z M117.658071,24.8148478 C117.611607,30.4604231 117.636084,36.1064472 117.635859,41.7522469 C117.635635,47.4355282 117.619017,53.1188095 117.653375,58.8018663 C117.65854,59.664391 117.448803,59.9588568 116.536425,59.9400038 C113.61942,59.8803027 110.699946,59.8975846 107.782043,59.9337195 C107.040104,59.9429216 106.825876,59.7059125 106.832389,58.9710944 C106.865174,55.2698468 106.817343,51.5679259 106.865174,47.8669028 C106.877974,46.8755493 106.648027,46.4782896 105.562515,46.5032025 C102.49618,46.5739013 99.4264759,46.5660459 96.3594669,46.5063447 C95.3103334,46.4859206 94.9283607,46.754127 94.9494692,47.8720649 C95.0186329,51.5349332 94.9514902,55.2002703 94.9955035,58.8638119 C95.0056086,59.7128701 94.7354657,59.9554902 93.9095425,59.943146 C91.1039187,59.9014001 88.2971721,59.9009512 85.4917728,59.9429216 C84.686958,59.9550414 84.3918892,59.7662869 84.3941221,58.8941113 C84.4231028,47.4530346 84.4210817,36.0117333 84.4004224,24.5706566 C84.3988505,23.7047653 84.6469868,23.391222 85.5521788,23.4082794 C88.3198524,23.4607985 91.0897715,23.4567586 93.8576697,23.4094017 C94.7695985,23.3936908 94.9968508,23.7404513 94.9880931,24.5951206 C94.9503674,28.1841479 95.0038121,31.7742975 94.9517147,35.362876 C94.9373431,36.3591672 95.2591342,36.648022 96.2382058,36.6305157 C99.3799924,36.5741811 102.524025,36.5757522 105.666036,36.6222114 C106.610975,36.6363511 106.882914,36.310688 106.871237,35.3931754 C106.825652,31.8043725 106.883139,28.2139985 106.82161,24.6256445 C106.804319,23.6161113 107.120721,23.3761845 108.09575,23.4006485 C110.825249,23.4695517 113.55879,23.470225 116.288288,23.3981796 C117.397603,23.3690024 117.666624,23.7597532 117.658071,24.8148478 Z" id="Combined-Shape"/>
        </g>
    </g>
</g>
  </g>
</g>
    <g transform="translate(180.0, -240.0) scale(1 1)"><g>
    <g transform="translate(0, 0) scale(13 13)" opacity="0.1"><title>fight-sports/icon/fight-sports_blanco</title>
    <g id="fight-sports/icon/fight-sports_blanco" stroke="none" stroke-width="1" fill="none" fill-rule="evenodd">
        <g id="Group" transform="translate(9.000000, 31.000000)" fill="#FFFFFF">
            <path d="M100.387047,10.7751188 C99.7088062,10.7751188 99.0525429,10.7751188 98.3962796,10.7751188 C65.899341,10.775271 33.4025551,10.77238 0.905616483,10.7944435 C0.153508196,10.7948992 -0.00658952949,10.5987694 0.00348334935,9.88013409 C0.0456062972,6.86439162 0.0445379616,3.84727974 0.000366181234,0.83168943 C-0.00903143951,0.150788948 0.17212776,-0.000606801441 0.836785144,0 C18.3565738,0.0196300173 35.8765152,0.0168911998 53.3963038,0.0173476694 C64.9914083,0.0174998259 76.5866655,0.0206951131 88.18177,0.00502299025 C88.8043044,0.00411005106 89.2705566,0.151245418 89.7358931,0.590521326 C93.2046263,3.86462559 96.7005257,7.11012442 100.186963,10.3653613 C100.274719,10.4473736 100.404445,10.5030629 100.387047,10.7751188" id="Fill-4"/>
            <path d="M0.899032216,45.5944404 C16.1854012,45.6093634 31.4717701,45.6121045 46.7581843,45.6121836 L100.32181,45.6119525 C100.344084,45.6685933 100.366358,45.7253863 100.388631,45.7820271 C98.7267998,47.3398006 97.067104,48.9000102 95.4025264,50.4548907 C92.8428816,52.8456794 90.2714898,55.2239828 87.7281689,57.6318246 C87.3829265,57.9588794 87.0291409,57.9803481 86.619976,57.9801958 L51.7680434,57.9801958 C34.8377432,57.9806526 17.9074429,57.9747144 0.977295284,57.9999948 C0.174984414,58.0012077 -0.00946012774,57.7892616 0.000366181234,57.0084716 C0.0462241217,53.5083155 0.042410132,50.0070937 0.00167672214,46.5067854 C-0.00656149558,45.788422 0.149964641,45.5936813 0.899032216,45.5944404 Z M41.2542267,47.8500543 C39.8931713,47.8446861 38.7354271,48.2083696 37.780994,48.9357365 C37.3066013,49.3102763 36.9395117,49.7390971 36.6740776,50.222199 C36.3973485,50.7378697 36.2561602,51.2915371 36.2561602,51.8832013 C36.2561602,53.0719578 36.7644381,54.0490179 37.7866416,54.8198098 L37.7866416,54.8198098 L37.9897799,54.9701056 C38.8850291,55.5972486 39.9750605,55.9104768 41.2598742,55.905492 C42.6209296,55.9108602 43.7786738,55.5471768 44.7331069,54.8198098 C45.2131472,54.4452701 45.5802368,54.0164492 45.8343758,53.5279192 C46.1111049,53.0176766 46.2466457,52.4694373 46.2466457,51.8832013 C46.2466457,50.6835886 45.7383677,49.6956722 44.7218118,48.9248803 C43.7843214,48.2083696 42.6265772,47.8500543 41.2542267,47.8500543 Z M19.8848558,47.8499957 C18.5861228,47.8499957 17.5909897,47.97966 16.8994566,48.2389885 C16.4103234,48.4226796 16.0392568,48.6603974 15.7862569,48.9575447 C15.6344569,49.1304304 15.5163903,49.3249268 15.432057,49.5464366 C15.3477236,49.7733491 15.3083681,50.0056642 15.3083681,50.243382 C15.3083681,50.7350257 15.4657903,51.1564346 15.7806346,51.502206 C16.0561235,51.7885479 16.4215678,52.004655 16.8769677,52.1505273 C17.3829676,52.3288157 18.3218784,52.4854934 19.6880781,52.6205603 L19.6880781,52.6205603 L19.8173891,52.6313657 L20.0939451,52.6600414 C21.1698493,52.7747444 21.8820416,52.8894475 22.234944,53.0041505 C22.437344,53.0743853 22.5835217,53.1554254 22.6790995,53.247271 C22.7353217,53.3175058 22.7634328,53.4039486 22.7634328,53.5011968 C22.7578106,53.6254584 22.7240773,53.7281093 22.6566106,53.8091495 C22.5610329,53.9226057 22.3979884,54.0198539 22.1674774,54.1008941 C21.6333664,54.2899878 20.8293889,54.387236 19.7555447,54.387236 C19.0527671,54.387236 18.4062117,54.3061958 17.8158785,54.1441155 C17.3155009,53.9928405 16.961301,53.8199548 16.7532788,53.6200557 C16.7195455,53.5930424 16.6970566,53.566029 16.68019,53.5390156 L16.68019,53.5390156 L15.3477236,54.3386119 L15.4189384,54.4468656 C15.4726619,54.5193015 15.5388791,54.5925378 15.6175902,54.6681753 C16.0167679,55.0679734 16.6014789,55.3759261 17.3717231,55.5866305 C18.1026118,55.7973349 18.9009671,55.9053885 19.7667891,55.9053885 C21.0430333,55.9107912 22.0381663,55.7811269 22.7521884,55.5163957 C23.2244549,55.3489127 23.5955215,55.1111948 23.8653881,54.8032422 C24.0284325,54.6087458 24.1464991,54.4142494 24.219588,54.2143503 C24.2926768,54.0036459 24.3320324,53.7713307 24.3320324,53.5174049 C24.3320324,53.0311638 24.1746102,52.6151576 23.8597658,52.2693863 C23.5955215,51.9830443 23.2300771,51.7615345 22.769055,51.6048569 L22.769055,51.6048569 L22.7578106,51.5886488 L22.6438746,51.552927 C22.1210654,51.398866 21.2201332,51.2544546 19.941078,51.1240185 L19.941078,51.1240185 L19.8286336,51.1132132 L19.5690054,51.0865857 C18.4726457,50.9711999 17.7492151,50.8558142 17.394212,50.7404284 C17.1637009,50.6485829 17.0175232,50.5675427 16.9556788,50.4973079 C16.8994566,50.4594892 16.8713455,50.3730463 16.8713455,50.2379794 C16.8769677,50.1137178 16.910701,50.0110669 16.9781677,49.9300267 C17.062501,49.8273759 17.2255454,49.7301276 17.4616786,49.6382821 C17.9901674,49.4491884 18.794145,49.3519402 19.8792336,49.3519402 C20.5932556,49.3519402 21.239811,49.438383 21.8188997,49.6058661 C22.3305218,49.7463357 22.6847217,49.9192214 22.8814994,50.1245231 L22.8814994,50.1245231 L22.9433439,50.2055633 L24.2870546,49.405967 L24.2101005,49.3036538 C24.1363088,49.2084316 24.0720047,49.1344824 24.017188,49.0818063 C23.6123881,48.6820081 23.0276772,48.3740555 22.2686774,48.1633511 C21.571522,47.9526466 20.7787889,47.8499957 19.8848558,47.8499957 Z M74.1879784,47.8499957 C72.8892454,47.8499957 71.8941123,47.97966 71.2025792,48.2389885 C70.7134459,48.4226796 70.3423794,48.6603974 70.0893794,48.9575447 C69.9375795,49.1304304 69.8195129,49.3249268 69.7351795,49.5464366 C69.6508462,49.7733491 69.6114907,50.0056642 69.6114907,50.243382 C69.6114907,50.7350257 69.7689129,51.1564346 70.0837572,51.502206 C70.359246,51.7885479 70.7246904,52.004655 71.1800903,52.1505273 C71.6860901,52.3288157 72.625001,52.4854934 73.9912006,52.6205603 L73.9912006,52.6205603 L74.1205117,52.6313657 L74.3970677,52.6600414 C75.4729718,52.7747444 76.1851642,52.8894475 76.5380666,53.0041505 C76.7404666,53.0743853 76.8866443,53.1554254 76.9822221,53.247271 C77.0384443,53.3175058 77.0665554,53.4039486 77.0665554,53.5011968 C77.0609332,53.6254584 77.0271998,53.7281093 76.9597332,53.8091495 C76.8641554,53.9226057 76.701111,54.0198539 76.4706,54.1008941 C75.936489,54.2899878 75.1325114,54.387236 74.0586673,54.387236 C73.3558897,54.387236 72.7093343,54.3061958 72.1190011,54.1441155 C71.6186235,53.9928405 71.2644236,53.8199548 71.0564014,53.6200557 C71.0226681,53.5930424 71.0001792,53.566029 70.9833125,53.5390156 L70.9833125,53.5390156 L69.6508462,54.3386119 L69.722061,54.4468656 C69.7757845,54.5193015 69.8420017,54.5925378 69.9207128,54.6681753 C70.3198905,55.0679734 70.9046015,55.3759261 71.6748457,55.5866305 C72.4057344,55.7973349 73.2040897,55.9053885 74.0699117,55.9053885 C75.3461558,55.9107912 76.3412889,55.7811269 77.0553109,55.5163957 C77.5275775,55.3489127 77.8986441,55.1111948 78.1685106,54.8032422 C78.3315551,54.6087458 78.4496217,54.4142494 78.5227106,54.2143503 C78.5957994,54.0036459 78.635155,53.7713307 78.635155,53.5174049 C78.635155,53.0311638 78.4777328,52.6151576 78.1628884,52.2693863 C77.8986441,51.9830443 77.5331997,51.7615345 77.0721776,51.6048569 L77.0721776,51.6048569 L77.0609332,51.5886488 L76.9469971,51.552927 C76.424188,51.398866 75.5232558,51.2544546 74.2442006,51.1240185 L74.2442006,51.1240185 L74.1317562,51.1132132 L73.872128,51.0865857 C72.7757683,50.9711999 72.0523377,50.8558142 71.6973346,50.7404284 C71.4668235,50.6485829 71.3206458,50.5675427 71.2588014,50.4973079 C71.2025792,50.4594892 71.174468,50.3730463 71.174468,50.2379794 C71.1800903,50.1137178 71.2138236,50.0110669 71.2812902,49.9300267 C71.3656236,49.8273759 71.528668,49.7301276 71.7648012,49.6382821 C72.29329,49.4491884 73.0972675,49.3519402 74.1823561,49.3519402 C74.8963782,49.3519402 75.5429336,49.438383 76.1220223,49.6058661 C76.6336444,49.7463357 76.9878443,49.9192214 77.184622,50.1245231 L77.184622,50.1245231 L77.2464664,50.2055633 L78.5901772,49.405967 L78.5132231,49.3036538 C78.4394314,49.2084316 78.3751273,49.1344824 78.3203106,49.0818063 C77.9155107,48.6820081 77.3307998,48.3740555 76.5718,48.1633511 C75.8746446,47.9526466 75.0819115,47.8499957 74.1879784,47.8499957 Z M32.487568,48.0111068 L26.1045379,48.0111068 L26.1045379,55.7444395 L27.707276,55.7444395 L27.707276,52.8053416 L32.487568,52.8053416 L32.6845875,52.7976191 C32.9463867,52.7770832 33.2046118,52.7158205 33.4592629,52.6165922 C33.74407,52.4925569 34.0009549,52.319986 34.2355019,52.0988796 C34.4700489,51.8723803 34.6487515,51.6189168 34.7716094,51.3384891 C34.9000519,51.0310973 34.9670653,50.7237054 34.9670653,50.4163135 C34.9670653,50.0981359 34.9000519,49.7853512 34.7716094,49.4779593 C34.643167,49.186746 34.4644645,48.9332825 34.2355019,48.712176 C34.0177082,48.5018553 33.7608234,48.3346772 33.4648474,48.2106419 L33.4648474,48.2106419 L33.4592629,48.1998562 L33.2810071,48.1325967 C33.0379717,48.0525238 32.773492,48.0111068 32.487568,48.0111068 L32.487568,48.0111068 Z M54.3772888,48.0111068 L47.8580143,48.0111068 L47.8580143,55.7444395 L49.4695834,55.7444395 L49.4695834,52.8457842 L52.9622525,52.8350285 L54.8152763,55.7444395 L56.7244523,55.7444395 L54.8377372,52.7920058 L54.9524106,52.7769647 C55.0721728,52.7550332 55.2069381,52.7126827 55.3543378,52.652182 C55.6463294,52.5284917 55.9102449,52.3564008 56.1404691,52.1305316 L56.1404691,52.1305316 L56.272584,51.9937194 C56.4407712,51.8052799 56.5773334,51.5927477 56.6851457,51.3561228 C56.8142959,51.0495859 56.8816786,50.7376713 56.8816786,50.4203788 C56.8816786,50.1030862 56.8142959,49.7911716 56.6851457,49.4846348 C56.5616108,49.2049871 56.3819237,48.9522287 56.1460843,48.7263594 C55.9102449,48.5004902 55.6463294,48.3283993 55.3543378,48.2100869 C55.0455005,48.0756409 54.7198175,48.0111068 54.3772888,48.0111068 L54.3772888,48.0111068 Z M67.8389852,48.0111068 L58.3319103,48.0111068 L58.3319103,49.5545467 L62.2782433,49.5545467 L62.2782433,55.7444395 L63.8870466,55.7444395 L63.8870466,49.5545467 L67.8389852,49.5545467 L67.8389852,48.0111068 Z M41.2485792,49.3591293 C42.2425449,49.3591293 43.0727322,49.6088224 43.7447886,50.1136368 C44.0384603,50.3524737 44.2643617,50.6184512 44.4281401,50.9061411 C44.5919186,51.2046873 44.670984,51.530374 44.670984,51.8832013 C44.670984,52.2251723 44.5919186,52.5454309 44.4281401,52.8439771 C44.2643617,53.1533794 44.0328128,53.4193569 43.7334936,53.6419095 C43.0727322,54.152152 42.2425449,54.4072733 41.2485792,54.4072733 C40.2433183,54.4072733 39.413131,54.1575801 38.7580172,53.6527657 C38.458698,53.4139288 38.2327967,53.1479513 38.0803133,52.8602614 C37.9165348,52.5562871 37.8374694,52.2360285 37.8374694,51.8940575 C37.8374694,51.5520864 37.9165348,51.2318278 38.0803133,50.9278536 L38.0803133,50.9278536 L38.0803133,50.9169974 L38.1806135,50.7397804 C38.3260939,50.5103232 38.5185618,50.3079632 38.7580172,50.1299211 C39.4413687,49.6142505 40.271556,49.3591293 41.2485792,49.3591293 Z M32.487568,49.4509951 C32.7723751,49.4509951 33.0069222,49.5480663 33.1912091,49.7368157 C33.386665,49.9147794 33.4871852,50.1412787 33.4871852,50.4217063 C33.4871852,50.6859555 33.386665,50.9124548 33.1856247,51.106597 L33.1856247,51.106597 L33.0823382,51.1933069 C32.9056264,51.325007 32.7062924,51.3924176 32.487568,51.3924176 L32.487568,51.3924176 L27.707276,51.3924176 L27.707276,49.4509951 Z M54.3772888,49.4792569 C54.6468196,49.4792569 54.8770437,49.5706802 55.0679613,49.7535267 C55.2588789,49.9525068 55.3543378,50.178376 55.3543378,50.4311344 C55.3543378,50.6946486 55.2588789,50.9205178 55.0679613,51.1033643 C54.8770437,51.2862109 54.6468196,51.3776341 54.3772888,51.3722563 L54.3772888,51.3722563 L49.4695834,51.383012 L49.4695834,49.4792569 Z" id="Combined-Shape"/>
            <path d="M48.1750207,16.0618799 C50.4502311,16.2805137 52.4650902,17.1816933 53.5280258,19.4232993 C54.1351557,20.7035864 54.0591118,22.088166 54.0278086,23.4564546 C54.0191047,23.8341918 53.7130966,23.8958539 53.4293824,23.8973764 C51.6486104,23.9071205 49.8676856,23.9078818 48.0869136,23.8964629 C47.7776988,23.8943314 47.5304796,23.8197279 47.4507709,23.4043845 C47.2424899,22.3198935 46.3930271,21.5437129 45.2790902,21.5228543 C43.60536,21.4916427 41.9253691,21.380042 40.2554563,21.6309532 C39.2574177,21.7809215 38.6906002,22.3060386 38.6061578,23.3162306 C38.3311475,26.6054826 38.4948404,29.9020428 38.5157602,33.1947966 C38.5232424,34.3563271 39.2540583,34.9906089 40.5309247,35.0309556 C42.258863,35.0854618 43.9921457,35.0869844 45.7191678,35.0155782 C47.1163608,34.9578747 48.0705748,33.2351434 47.4547411,32.0282418 C47.3168541,31.7581468 47.0699404,31.8245287 46.855246,31.8230061 C45.7868133,31.815089 44.7179226,31.8030611 43.649948,31.8268124 C43.1530665,31.8377746 42.8966854,31.717191 42.907527,31.1537064 C42.9331804,29.8353564 42.9238657,28.5157884 42.8982124,27.1974384 C42.8884396,26.6942455 43.091987,26.5366647 43.5764999,26.5383395 C46.883648,26.5497584 50.1911015,26.5494539 53.4982495,26.5331629 C53.9458094,26.5308791 54.0649143,26.7001833 54.0614771,27.1147655 C54.0380394,29.9043265 54.0862922,32.6957146 54.0035295,35.4832963 C53.9227519,38.2048007 52.4563864,39.7487881 49.5560276,40.3447024 C48.5114159,40.5593777 47.457795,40.6863559 46.3832544,40.6970135 C43.7423307,40.7233531 41.1012543,40.8460682 38.4618575,40.6601686 C36.9828181,40.5560282 35.5335549,40.2754278 34.2131694,39.5840515 C32.562802,38.7200214 32.1268473,37.1452791 31.9135272,35.4554342 C31.626301,33.1806372 31.8642055,30.8976185 31.7541098,28.6203855 C31.8623731,26.4188217 31.6942519,24.2171056 31.8950507,22.0115832 C32.2448834,18.1661546 34.2852432,16.4635206 37.9778027,16.0480249 C41.3658811,15.6666337 44.7860262,15.7362128 48.1750207,16.0618799 Z M101.208953,15.8759295 C101.863572,15.8685198 102.015049,16.0739078 101.998863,16.6935734 C101.955955,18.3400264 101.967255,19.988611 101.994435,21.6358253 C102.002833,22.1368866 101.842653,22.2918791 101.343633,22.282744 C99.8186315,22.2550342 98.2902704,22.3241566 96.7683226,22.2500098 C95.9457348,22.2099676 95.8170098,22.5095995 95.8211327,23.2431496 C95.8512143,28.7434051 95.8280041,34.2439651 95.8531994,39.7442206 C95.8562534,40.4218942 95.7021804,40.6860514 94.9692267,40.6654974 C93.1907452,40.6158632 91.4093623,40.6231713 89.6305754,40.6651929 C88.9884774,40.6804181 88.8183711,40.4794454 88.820967,39.8518627 C88.8438718,34.3007551 88.8224939,28.7494952 88.8504378,23.1985398 C88.8541026,22.470014 88.6528457,22.2288468 87.9082869,22.2541207 C86.3083101,22.3086269 84.704974,22.2594495 83.1036229,22.2850278 C82.6032293,22.2929449 82.4409106,22.1221182 82.447782,21.6262334 C82.4709922,19.953593 82.4751151,18.2800391 82.4438119,16.6077032 C82.4328176,16.0232078 82.662171,15.8787207 83.2079161,15.8822225 C86.2334878,15.9017108 89.2592122,15.8915099 92.2847839,15.8915099 C95.2596596,15.8915099 98.2345354,15.9111504 101.208953,15.8759295 Z M27.9460031,16.7029521 C27.9224875,20.5566023 27.9342453,24.410557 27.9336345,28.2643594 C27.9330238,32.1435879 27.9191282,36.0228165 27.9472247,39.9017405 C27.9518057,40.5183611 27.759558,40.6751806 27.168156,40.6642185 C25.3376042,40.6304185 23.5059835,40.6363563 21.6751263,40.6610212 C21.1254111,40.6683293 20.920184,40.5131845 20.9214002,39.9302116 C20.9385079,32.146633 20.9375917,24.3627498 20.9233907,16.5791712 C20.9224745,16.0406559 21.1000631,15.8768328 21.627637,15.8835319 C23.4583415,15.9071309 25.2901149,15.9141345 27.1205141,15.878203 C27.7561987,15.8657184 27.9499733,16.0743036 27.9460031,16.7029521 Z M80.0072009,16.8334625 C79.9756056,20.6632091 79.9922498,24.4932603 79.9920971,28.3231591 C79.9919444,32.1784841 79.9806447,36.0338091 80.0040076,39.8889818 C80.0075196,40.4740862 79.8648991,40.6738408 79.2444843,40.6610516 C77.2609284,40.6205526 75.2756929,40.632276 73.2915262,40.6567886 C72.7870097,40.6630309 72.6413352,40.5022528 72.6457634,40.0037798 C72.6680575,37.4929922 72.6355326,34.9817478 72.6680575,32.4711124 C72.6767613,31.7986154 72.5203978,31.5291293 71.7822524,31.5460293 C69.6971519,31.5939887 67.6097609,31.5886599 65.5242023,31.5481608 C64.810794,31.5343059 64.5510536,31.716247 64.5654072,32.4746142 C64.6124384,34.9593667 64.5667815,37.445794 64.5967105,39.9310033 C64.6035819,40.5069726 64.4198854,40.671557 63.8582596,40.6631831 C61.9504423,40.6348643 60.0418615,40.6345598 58.1341968,40.6630309 C57.5869247,40.6712525 57.3862787,40.5432086 57.387797,39.9515573 C57.4075038,32.1903598 57.4061295,24.4290099 57.3920812,16.6678123 C57.3910123,16.0804241 57.5597444,15.8677281 58.1752728,15.8792993 C60.057284,15.9149262 61.9408223,15.9121857 63.8229862,15.8800605 C64.4430956,15.8694029 64.5976267,16.1046322 64.5916714,16.6844078 C64.566018,19.1190694 64.6023603,21.5544923 64.5669342,23.9888494 C64.5571615,24.664696 64.7759787,24.8606443 65.441745,24.8487687 C67.5781523,24.8105534 69.7160865,24.8116192 71.8526465,24.8431353 C72.4952025,24.8527272 72.6801206,24.6318096 72.6721803,24.0094034 C72.6411825,21.5748941 72.6802733,19.1393189 72.6384339,16.7051141 C72.6266761,16.0202846 72.8418286,15.8575272 73.5048462,15.8741227 C75.3608987,15.9208641 77.2196998,15.9213208 79.0757523,15.8724479 C79.8300838,15.8526552 80.0130168,16.1177259 80.0072009,16.8334625 Z M0.892789775,15.8735504 C6.18364644,15.9042077 11.4746558,15.9013149 16.7655125,15.8757366 C17.4085266,15.8726915 17.5934447,16.059048 17.5772587,16.6866307 C17.5364881,18.2580235 17.5364881,19.8315478 17.5729831,21.4029407 C17.586726,21.9877406 17.3837894,22.1258331 16.8284243,22.1214178 C13.8778277,22.0975143 10.9269256,22.1270511 7.97648168,22.0981233 C7.3597317,22.0920332 7.10503029,22.2362158 7.1505345,22.8924219 C7.20474253,23.6748449 7.19405362,24.4653372 7.15343577,25.249435 C7.12518652,25.7946494 7.32629068,25.9331987 7.85294844,25.9284789 C10.5491491,25.9047276 13.2458078,25.9380708 15.9417031,25.9032051 C16.5931157,25.8946789 16.8385024,26.0358165 16.8125437,26.7354145 C16.7578775,28.2041894 16.7768122,29.676923 16.8075046,31.1470682 C16.8186516,31.6810159 16.650225,31.838749 16.1110459,31.8337247 C13.4404986,31.8093644 10.7687298,31.8626526 8.09909872,31.8057103 C7.28048108,31.7882013 7.13312685,32.0662135 7.14580084,32.7979366 C7.18672409,35.1557109 7.14488465,37.5147033 7.17221771,39.8727822 C7.17908915,40.4659559 7.00088979,40.6733231 6.39101125,40.6625132 C4.53465336,40.6296268 2.67676849,40.627343 0.820563298,40.6638835 C0.176480254,40.6765204 -0.00263530114,40.4516442 0.00102946725,39.8321309 C0.023323475,35.9775672 0.0121764711,32.1228512 0.0132453619,28.2682875 C0.0143142527,24.4389976 0.0289733262,20.6095555 0.000466661105,16.7805702 C-0.00446768534,16.096502 0.170677704,15.8694942 0.892789775,15.8735504 Z" id="Combined-Shape"/>
        </g>
    </g>
</g>
  </g>
</g>
  </g>
</svg>
